<?xml version="1.0" standalone="no"?>
<!DOCTYPE svg PUBLIC "-//W3C//DTD SVG 20010904//EN"
 "http://www.w3.org/TR/2001/REC-SVG-20010904/DTD/svg10.dtd">
<svg version="1.0" xmlns="http://www.w3.org/2000/svg"
 width="784.000000pt" height="784.000000pt" viewBox="0 0 784.000000 784.000000"
 preserveAspectRatio="xMidYMid meet">
<metadata>
Created by potrace 1.11, written by Peter Selinger 2001-2013
</metadata>
<g transform="translate(0.000000,784.000000) scale(0.100000,-0.100000)"
fill="#000000" stroke="none">
<path d="M5293 6620 l0 -1170 26 -1 c34 0 2247 0 2286 0 l30 1 0 1170 0 1170
-1171 0 -1171 0 0 -1170z"/>
<path d="M168 7705 c3 -5 10 -14 14 -20 22 -26 59 -83 75 -112 9 -18 20 -33
25 -33 4 0 8 -6 8 -14 0 -8 3 -16 8 -18 9 -4 124 -176 134 -200 4 -10 13 -18
19 -18 7 0 10 -3 6 -6 -3 -4 -1 -12 6 -20 26 -29 37 -43 37 -49 0 -3 16 -28
35 -55 19 -27 35 -54 35 -59 0 -5 3 -11 8 -13 11 -4 112 -155 112 -167 0 -5 4
-11 8 -13 11 -4 92 -124 92 -137 0 -5 4 -11 8 -13 5 -1 213 -309 463 -683 250
-374 457 -684 462 -690 4 -5 22 -32 40 -60 17 -27 36 -55 42 -61 5 -6 19 -27
30 -47 11 -20 23 -37 27 -37 5 0 8 -6 8 -14 0 -8 3 -16 8 -18 4 -1 23 -28 42
-58 19 -30 37 -57 40 -60 12 -12 130 -192 130 -200 0 -4 4 -10 8 -12 4 -1 63
-86 131 -188 68 -102 129 -188 135 -192 6 -4 7 -8 3 -8 -9 0 62 -103 75 -108
5 -2 8 -9 8 -15 1 -7 40 -70 89 -141 l87 -129 -66 -101 c-37 -56 -114 -173
-172 -261 -58 -88 -169 -256 -246 -374 -78 -118 -142 -218 -142 -223 0 -4 -4
-8 -10 -8 -5 0 -10 -7 -10 -15 0 -8 -4 -15 -10 -15 -5 0 -10 -7 -10 -15 0 -8
-4 -15 -10 -15 -5 0 -10 -5 -10 -10 0 -6 -5 -16 -10 -23 -23 -26 -100 -148
-100 -157 0 -6 -5 -10 -10 -10 -6 0 -14 -8 -17 -17 -6 -16 -120 -193 -140
-218 -23 -29 -103 -156 -103 -164 0 -5 -3 -11 -7 -13 -11 -4 -73 -97 -73 -107
0 -5 -3 -11 -8 -13 -4 -2 -41 -55 -82 -118 -41 -63 -78 -116 -82 -118 -5 -2
-8 -7 -8 -12 0 -6 -230 -360 -257 -396 -13 -17 -33 -48 -40 -64 -4 -8 -15 -24
-25 -34 -10 -11 -18 -25 -18 -32 0 -7 -4 -14 -8 -16 -8 -3 -72 -96 -72 -104 0
-3 -8 -16 -17 -29 -24 -31 -30 -40 -137 -205 -52 -80 -102 -153 -110 -162 -9
-10 -16 -21 -16 -24 0 -3 -14 -26 -32 -52 -18 -26 -31 -48 -30 -50 2 -1 -3 -9
-10 -16 -16 -16 -15 -15 -132 -196 -52 -80 -99 -149 -103 -155 -5 -5 -20 -28
-33 -50 -13 -22 -27 -42 -30 -45 -4 -3 -9 -9 -11 -15 -8 -20 -103 -160 -111
-163 -4 -2 -8 -8 -8 -14 0 -6 -19 -38 -43 -72 -23 -33 -46 -67 -50 -73 -7 -10
231 -13 1175 -13 l1183 1 55 91 c30 50 56 98 58 105 2 7 8 13 13 13 5 0 9 7 9
15 0 8 5 15 10 15 6 0 10 4 10 10 0 12 212 364 222 368 5 2 8 7 8 12 0 12 103
184 112 188 5 2 6 8 2 13 -3 5 0 9 5 9 6 0 11 7 11 15 0 8 4 15 9 15 5 0 11 8
15 17 8 26 57 107 68 114 5 3 9 9 9 13 -1 3 14 31 34 61 19 31 35 57 35 60 0
2 27 47 60 100 33 53 60 98 60 100 0 6 76 126 90 142 5 7 10 15 10 18 0 10
134 230 142 233 5 2 8 8 8 13 0 4 29 56 65 114 36 57 65 107 65 109 0 3 13 24
28 48 16 24 38 59 48 78 10 19 21 37 24 40 5 4 202 330 240 397 9 15 21 28 27
30 6 2 53 -65 103 -149 50 -84 115 -191 143 -238 29 -47 61 -102 72 -123 11
-20 23 -37 27 -37 5 0 8 -4 8 -9 0 -5 22 -46 50 -90 27 -44 50 -85 50 -90 0
-5 3 -11 8 -13 5 -2 174 -277 257 -420 5 -10 51 -84 100 -165 50 -81 92 -152
94 -158 2 -5 7 -12 11 -15 4 -3 13 -17 21 -32 8 -15 34 -60 59 -100 24 -40 51
-85 60 -99 8 -15 96 -160 195 -323 224 -369 212 -350 260 -430 l39 -66 1183 0
1182 0 -17 30 c-9 16 -20 30 -24 30 -5 0 -8 7 -8 15 0 8 -4 15 -10 15 -5 0
-10 7 -10 15 0 8 -4 15 -10 15 -5 0 -10 4 -10 9 0 9 -257 402 -279 428 -6 7
-11 14 -11 16 0 4 -125 194 -359 547 -20 30 -39 57 -43 58 -5 2 -8 7 -8 12 0
7 -19 37 -81 130 -5 8 -93 141 -195 295 -102 154 -222 336 -267 403 -45 68
-87 131 -92 140 -14 23 -88 135 -227 345 -65 98 -118 180 -118 183 0 3 -8 14
-18 25 -11 10 -25 32 -32 47 -8 15 -22 36 -31 47 -10 11 -24 31 -31 45 -21 40
-72 115 -80 118 -5 2 -8 10 -8 18 0 8 -4 14 -10 14 -5 0 -10 4 -10 10 0 11
-62 103 -72 108 -5 2 -8 8 -8 13 0 4 -18 34 -39 66 -152 226 -321 485 -321
493 0 4 -3 10 -7 12 -11 5 -73 97 -73 108 0 6 -4 10 -10 10 -5 0 -10 7 -10 15
0 8 -4 15 -10 15 -5 0 -10 6 -10 14 0 8 -4 16 -8 18 -4 2 -44 59 -87 128 -44
69 -83 127 -87 128 -5 2 -8 7 -8 12 0 8 -220 354 -240 377 -5 7 -10 15 -10 18
0 3 -15 27 -33 53 -18 26 -36 54 -40 62 -8 19 -372 581 -386 597 -6 7 -11 14
-11 16 0 6 -336 529 -349 544 -6 7 -11 16 -11 21 0 4 -8 17 -18 28 -10 10 -21
26 -25 34 -12 23 -27 47 -89 143 -32 48 -58 91 -58 94 0 4 -6 14 -14 22 -14
15 -155 233 -180 276 -6 11 -13 22 -16 25 -3 3 -9 13 -15 22 -22 37 -200 313
-205 318 -3 3 -23 34 -44 70 -22 36 -42 67 -45 70 -10 9 -31 44 -37 63 -4 9
-10 17 -14 17 -4 0 -13 14 -20 30 -7 17 -16 30 -21 30 -5 0 -9 4 -9 9 0 9 -98
164 -117 186 -5 6 -9 12 -10 15 0 8 -96 154 -103 160 -4 3 -10 15 -14 28 -4
12 -12 22 -17 22 -5 0 -9 6 -10 13 0 6 -22 44 -48 82 l-48 70 -1341 0 c-919 1
-1339 -3 -1334 -10z"/>
</g>
</svg>
