<svg width="93" height="80" viewBox="0 0 93 80" fill="none" xmlns="http://www.w3.org/2000/svg">
<ellipse cx="46.1683" cy="35.3148" rx="29.2793" ry="29.3604" fill="#EF7D6E"/>
<path d="M78.6922 24.5108C73.5507 11.4278 63.0616 1 45.9937 1C28.9258 1 18.4367 11.4278 13.2952 24.5108" stroke="#FFF6E9" stroke-width="0.9875" stroke-linecap="round"/>
<path d="M4.23589 31.4764C5.8416 29.9759 6.9656 29.7576 7.8755 29.7576C10.1235 29.7576 11.7292 31.8037 11.7292 35.8142C11.7292 39.9883 9.85588 41.6797 7.76846 41.6797C6.64446 41.6797 5.44018 41.216 4.23589 40.0428V31.4764ZM4.18237 25.2015L4.26265 20.9456L3.88799 20.7273L0 21.9823V22.8826L1.82733 23.1281V36.5508C1.82733 37.9421 1.80057 40.0428 1.7738 41.5706L0.133809 41.898V42.8256L3.94151 43.1257L4.18237 41.0795C5.4937 42.7437 6.9656 43.2075 8.30369 43.2075C11.8363 43.2075 14.2983 40.0974 14.2983 35.5959C14.2983 30.9853 11.863 28.2571 8.70512 28.2571C7.15293 28.2571 5.57398 28.9391 4.18237 30.4942V25.2015Z" fill="#FFF6E9"/>
<path d="M19.4867 34.4773C19.7811 30.9307 21.6812 29.4029 23.4743 29.4029C25.3743 29.4029 26.7124 31.0126 26.7124 32.8677C26.7124 33.8499 26.4181 34.5319 25.1335 34.5319L19.4867 34.4773ZM28.8801 35.6232C29.014 35.214 29.0942 34.641 29.0942 33.959C29.0942 30.4396 26.766 28.2571 23.6081 28.2571C19.9952 28.2571 16.8908 31.2308 16.8908 35.8414C16.8908 40.5066 19.567 43.2075 23.501 43.2075C26.0969 43.2075 27.9702 41.898 29.0407 39.7973L28.452 39.3881C27.4082 40.6703 26.2575 41.5433 24.3306 41.5433C21.4671 41.5433 19.5135 39.5518 19.46 35.5959L28.8801 35.6232Z" fill="#FFF6E9"/>
<path d="M45.522 28.6663H40.403V29.5939L42.4979 29.894L38.8048 40.5066L34.9511 29.8667L36.5232 29.5939V28.6663H30.674V29.5939L32.1946 29.8122L37.6541 43.6986L37.5203 44.026C36.8512 45.8266 35.9948 47.4362 34.6835 48.4729L34.4694 48.2547C33.6933 47.518 33.1129 46.7561 32.2833 46.7561C31.4269 46.7561 30.4551 47.2725 30.4551 48.3911C30.4551 49.5096 31.6862 50.2735 33.0778 50.2735C35.2187 50.2735 37.0653 48.2547 38.9654 43.1257L43.8896 29.8667L45.522 29.5939V28.6663Z" fill="#FFF6E9"/>
<path d="M53.205 43.2075C56.6305 43.2075 59.949 40.7249 59.949 35.7869C59.949 30.8216 56.6037 28.2571 53.205 28.2571C49.7795 28.2571 46.4878 30.8489 46.4878 35.7869C46.4878 40.6976 49.7527 43.2075 53.205 43.2075ZM53.205 42.0617C50.6358 42.0617 49.1639 39.9064 49.1639 35.7869C49.1639 31.64 50.6358 29.4029 53.205 29.4029C55.7474 29.4029 57.246 31.64 57.246 35.7869C57.246 39.9064 55.7474 42.0617 53.205 42.0617Z" fill="#FFF6E9"/>
<path d="M75.5356 41.5706C75.5088 40.0701 75.4821 37.9967 75.4821 36.5508V33.6862C75.4821 29.8394 74.2242 28.2571 71.7354 28.2571C69.9156 28.2571 67.962 29.3211 66.4633 31.0126L66.2225 28.5572L65.821 28.2844L62.2542 29.9213V30.8216L64.028 31.0671C64.0815 32.2675 64.1083 33.3042 64.1083 34.9957V36.5508C64.1083 37.9421 64.0815 40.0428 64.0547 41.5706L62.4415 41.898V42.8256H68.631V41.898L66.5971 41.5706C66.5704 40.0428 66.5436 37.9421 66.5436 36.5508V32.1311C68.069 30.7125 69.3268 30.1395 70.6382 30.1395C72.3509 30.1395 73.0735 31.0671 73.0735 33.768V36.5508C73.0735 37.9967 73.0467 40.0701 73.02 41.5706L70.8523 41.898V42.8256H76.6259V41.898L75.5356 41.5706Z" fill="#FFF6E9"/>
<path d="M88.3467 39.9883C87.2227 41.2705 86.286 41.6797 85.0014 41.6797C82.6196 41.6797 80.8533 39.9337 80.8533 35.7869C80.8533 31.5036 82.7802 29.7576 85.0282 29.7576C86.0184 29.7576 87.0353 30.1395 88.3467 31.3399V39.9883ZM90.7552 41.6252V25.2015L90.8355 20.9456L90.4608 20.7273L86.4926 21.9823V22.8826L88.4002 23.1008V30.1941C87.1691 28.7209 85.9113 28.2571 84.5465 28.2571C80.9336 28.2571 78.2842 31.2308 78.2842 35.8687C78.2842 40.2338 80.7195 43.2075 84.3056 43.2075C86.0986 43.2075 87.3832 42.4164 88.4269 41.0795L88.5875 43.1257L92.1667 42.8256V41.898L90.7552 41.6252Z" fill="#FFF6E9"/>
</svg>
